<svg version="1.1" xmlns="http://www.w3.org/2000/svg" viewBox="0 0 148.89892479420982 378.0665516106442" width="148.89892479420982" height="378.0665516106442">
  <!-- svg-source:excalidraw -->
  
  <defs>
    <style>
      @font-face {
        font-family: "Virgil";
        src: url("https://unpkg.com/@zsviczian/excalidraw@0.11.0-obsidian-16/dist/excalidraw-assets/Virgil.woff2");
      }
      @font-face {
        font-family: "Cascadia";
        src: url("https://unpkg.com/@zsviczian/excalidraw@0.11.0-obsidian-16/dist/excalidraw-assets/Cascadia.woff2");
      }
    </style>
  </defs>
  <rect x="0" y="0" width="148.89892479420982" height="378.0665516106442" fill="#ffffff"></rect><g stroke-linecap="round" transform="translate(27.9204054626928 10) rotate(0 34.46428571428572 34.10714285714286)"><path d="M31.92 -0.44 C38.09 -1.52, 46.12 1.5, 51.87 4.92 C57.62 8.33, 63.88 13.9, 66.43 20.06 C68.99 26.22, 68.89 35.07, 67.2 41.87 C65.51 48.66, 61.41 56.35, 56.28 60.83 C51.16 65.31, 43.1 68.4, 36.47 68.76 C29.84 69.11, 22.23 66.41, 16.51 62.96 C10.78 59.5, 4.89 54.07, 2.13 48.03 C-0.63 41.99, -1.58 33.37, -0.04 26.74 C1.5 20.12, 5.81 12.62, 11.36 8.27 C16.92 3.92, 29.07 1.87, 33.27 0.65 C37.48 -0.58, 36.59 0.61, 36.59 0.91 M17.99 4.69 C23.29 1.55, 32.3 -1.12, 38.98 0 C45.66 1.13, 53.08 6.49, 58.08 11.44 C63.07 16.38, 67.95 23.22, 68.97 29.64 C69.99 36.07, 67.45 44.16, 64.18 49.97 C60.92 55.79, 55.04 61.51, 49.39 64.54 C43.75 67.57, 36.64 69.1, 30.31 68.15 C23.98 67.2, 16.26 63.82, 11.41 58.82 C6.56 53.82, 2.37 45.08, 1.21 38.14 C0.05 31.2, 1.31 22.77, 4.44 17.21 C7.56 11.65, 17.63 7.06, 19.97 4.78 C22.31 2.5, 18.29 3.35, 18.5 3.52" stroke="#000000" stroke-width="2" fill="none"></path></g><g stroke-linecap="round" transform="translate(29.896595938883337 98.8095238095238) rotate(0 29.285714285714278 66.14285714285714)"><path d="M1.39 -0.78 C19.22 0.78, 39.37 -0.96, 58.87 1.41 M0.45 0.11 C11.84 -0.19, 24.71 0.82, 57.59 -0.37 M59.37 -1.43 C56.67 39.57, 58.71 82.98, 60.31 132.31 M58.18 0.85 C58.58 43.02, 58.68 84.15, 57.65 132.57 M59.73 133.53 C42.85 132.17, 29.14 132.59, 1.63 131.56 M59.2 131.43 C45.78 132.87, 30.4 132.8, -0.14 132.43 M-1.55 133.97 C0.74 86.81, -1.67 45.05, 0.88 0.76 M-0.23 133.2 C-0.37 82.79, 0.89 31.9, 0.39 0.55" stroke="#000000" stroke-width="1" fill="none"></path></g><g stroke-linecap="round"><g transform="translate(42.32516736745478 233.09523809523807) rotate(0 -1.4285714285714448 59.28571428571428)"><path d="M-0.37 -0.21 C-0.66 19.57, -2.28 99.03, -2.82 119.01 M1.63 -1.37 C1.29 18.01, -3.29 97.24, -3.75 117.12" stroke="#000000" stroke-width="2" fill="none"></path></g></g><g stroke-linecap="round"><g transform="translate(82.75373879602617 347.3809523809523) rotate(0 -3.571428571428555 -56.428571428571445)"><path d="M-0.2 -0.64 C-1.49 -19.83, -5.57 -95.22, -6.68 -114.03 M-1.77 1.65 C-3.27 -16.93, -6.44 -94.07, -7.39 -113.11" stroke="#000000" stroke-width="2" fill="none"></path></g></g><g transform="translate(50.39833404682955 33.30957380952373) rotate(0 0 3)" stroke="none"><path fill="#000000" d="M 2.41,0 Q 2.41,0 2.45,1.15 2.49,2.3 2.52,3.97 2.54,5.64 2.48,6.05 2.41,6.46 2.22,6.82 2.02,7.18 1.72,7.47 1.42,7.75 1.05,7.92 0.68,8.10 0.27,8.14 -0.13,8.19 -0.54,8.10 -0.94,8.01 -1.29,7.80 -1.64,7.58 -1.91,7.27 -2.18,6.96 -2.33,6.57 -2.48,6.19 -2.51,5.78 -2.53,5.37 -2.42,4.97 -2.31,4.57 -2.08,4.23 -1.84,3.89 -1.52,3.64 -1.19,3.39 -0.80,3.26 -0.41,3.13 0.00,3.13 0.41,3.13 0.80,3.26 1.19,3.39 1.52,3.64 1.85,3.89 2.08,4.23 2.31,4.57 2.42,4.97 2.53,5.37 2.51,5.78 2.48,6.19 2.33,6.57 2.18,6.96 1.91,7.27 1.64,7.58 1.29,7.80 0.94,8.01 0.53,8.10 0.13,8.19 -0.27,8.14 -0.68,8.10 -1.05,7.92 -1.43,7.75 -1.72,7.47 -2.02,7.18 -2.22,6.82 -2.41,6.45 -2.48,6.05 -2.54,5.64 -2.54,5.64 -2.54,5.64 -2.52,3.97 -2.49,2.3 -2.45,1.15 -2.41,0 -2.38,-0.28 -2.34,-0.57 -2.24,-0.85 -2.14,-1.12 -1.97,-1.36 -1.81,-1.60 -1.59,-1.79 -1.37,-1.99 -1.11,-2.12 -0.85,-2.26 -0.57,-2.33 -0.29,-2.40 0.00,-2.40 0.29,-2.40 0.57,-2.33 0.85,-2.26 1.11,-2.12 1.37,-1.99 1.59,-1.79 1.81,-1.60 1.97,-1.36 2.14,-1.12 2.24,-0.85 2.34,-0.57 2.38,-0.28 2.41,0.00 2.41,0.00 L 2.41,0 Z"></path></g><g transform="translate(73.39833404682955 35.30957380952373) rotate(0 0 2.5)" stroke="none"><path fill="#000000" d="M 2.36,0 Q 2.36,0 2.39,2.27 2.43,4.55 2.37,4.94 2.30,5.33 2.12,5.68 1.93,6.03 1.65,6.30 1.36,6.57 1.00,6.73 0.65,6.90 0.25,6.94 -0.13,6.98 -0.51,6.90 -0.90,6.82 -1.23,6.61 -1.57,6.41 -1.83,6.11 -2.08,5.81 -2.23,5.44 -2.37,5.08 -2.39,4.68 -2.42,4.29 -2.31,3.91 -2.20,3.53 -1.98,3.20 -1.76,2.88 -1.45,2.64 -1.14,2.40 -0.76,2.28 -0.39,2.15 0.00,2.15 0.39,2.15 0.76,2.28 1.14,2.40 1.45,2.64 1.76,2.88 1.98,3.21 2.20,3.53 2.31,3.91 2.42,4.29 2.39,4.68 2.37,5.08 2.23,5.44 2.08,5.81 1.83,6.11 1.57,6.41 1.23,6.61 0.90,6.82 0.51,6.90 0.13,6.98 -0.26,6.94 -0.65,6.90 -1.00,6.73 -1.36,6.57 -1.65,6.30 -1.93,6.03 -2.12,5.68 -2.30,5.33 -2.37,4.94 -2.43,4.55 -2.43,4.55 -2.43,4.55 -2.39,2.27 -2.36,0 -2.32,-0.28 -2.29,-0.56 -2.19,-0.83 -2.09,-1.09 -1.92,-1.33 -1.76,-1.56 -1.55,-1.75 -1.34,-1.94 -1.08,-2.07 -0.83,-2.20 -0.56,-2.27 -0.28,-2.34 0.00,-2.34 0.28,-2.34 0.56,-2.27 0.83,-2.20 1.08,-2.07 1.34,-1.94 1.55,-1.75 1.76,-1.56 1.93,-1.33 2.09,-1.09 2.19,-0.83 2.29,-0.56 2.32,-0.28 2.36,0.00 2.36,0.00 L 2.36,0 Z"></path></g><g stroke-linecap="round"><g transform="translate(138.89892479420982 56.87440165500709) rotate(0 -25.121998200018144 27.373729396599714)"><path d="M0.01 -0.84 C-0.25 -0.84, 3.54 -8.54, -0.86 0.55 C-5.25 9.63, -18.15 45.9, -26.37 53.67 C-34.59 61.44, -46.12 48.32, -50.17 47.17 M-1.44 1.33 C-1.39 1.38, 5.75 -7.39, 1.41 1.46 C-2.93 10.31, -18.92 47.13, -27.47 54.42 C-36.02 61.71, -46.35 46.35, -49.89 45.2" stroke="#000000" stroke-width="2" fill="none"></path></g></g><g stroke-linecap="round" transform="translate(25.398334046829547 350.3095738095237) rotate(0 11.5 8.5)"><path d="M12.38 0.7 C14.68 0.96, 18.17 1.57, 19.89 2.77 C21.6 3.97, 22.4 6.18, 22.67 7.88 C22.94 9.59, 22.86 11.49, 21.53 12.99 C20.19 14.48, 17.12 16.48, 14.66 16.85 C12.21 17.22, 9.18 15.96, 6.78 15.21 C4.37 14.46, 1.21 13.74, 0.23 12.36 C-0.75 10.98, 0 8.67, 0.9 6.91 C1.81 5.15, 3.44 2.8, 5.65 1.79 C7.86 0.79, 12.71 1.12, 14.15 0.89 C15.6 0.66, 14.51 0.29, 14.3 0.41 M11.61 0.05 C13.79 0.11, 15.26 1.78, 17.25 2.96 C19.25 4.13, 22.86 5.46, 23.57 7.1 C24.29 8.74, 22.53 11.12, 21.53 12.81 C20.54 14.49, 19.86 16.36, 17.61 17.23 C15.35 18.11, 10.72 18.89, 7.99 18.05 C5.25 17.21, 2.57 13.97, 1.19 12.2 C-0.18 10.42, -0.83 9.22, -0.27 7.39 C0.28 5.57, 2.83 2.4, 4.52 1.25 C6.22 0.09, 8.72 0.47, 9.89 0.44 C11.06 0.41, 11.29 0.97, 11.56 1.06" stroke="#000000" stroke-width="2" fill="none"></path></g><g stroke-linecap="round"><g transform="translate(54.39833404682953 62.30957380952373) rotate(0 7.491106571443375 -0.29468985665589287)"><path d="M1.09 0.37 C3.88 0.33, 13.74 -0.13, 15.96 -0.18 M0.2 -0.48 C2.98 -0.89, 13.34 -1.85, 15.53 -2.09" stroke="#000000" stroke-width="1" fill="none"></path></g></g><g stroke-linecap="round"><g transform="translate(30.39833404682956 101.30957380952373) rotate(0 -10.19916702341478 54.735294117647044)"><path d="M0 0 C-3.4 7.2, -17.09 24.97, -20.4 43.21 C-23.71 61.46, -19.95 98.43, -19.86 109.47 M0 0 C-3.4 7.2, -17.09 24.97, -20.4 43.21 C-23.71 61.46, -19.95 98.43, -19.86 109.47" stroke="#000000" stroke-width="2" fill="none"></path></g></g><g stroke-linecap="round" transform="translate(71.06720015459845 348.0665516106442) rotate(0 9.411764705882348 10)"><path d="M11.01 -0.09 C12.88 0.4, 14.94 3.02, 16.34 4.7 C17.75 6.39, 19.26 8.06, 19.44 10 C19.63 11.93, 18.74 14.72, 17.44 16.32 C16.15 17.92, 13.66 19.37, 11.66 19.6 C9.65 19.83, 7.32 18.75, 5.4 17.69 C3.47 16.63, 0.96 15.1, 0.11 13.26 C-0.74 11.42, -0.35 8.71, 0.3 6.66 C0.95 4.6, 1.94 2.05, 4.03 0.91 C6.12 -0.22, 11.24 -0.1, 12.83 -0.15 C14.42 -0.2, 13.65 0.35, 13.58 0.62 M4.19 2.35 C5.52 1.23, 8.98 -1.48, 11.09 -1.06 C13.2 -0.64, 15.74 2.9, 16.86 4.87 C17.97 6.84, 18.02 8.59, 17.77 10.76 C17.53 12.93, 16.5 16.48, 15.39 17.88 C14.28 19.27, 12.95 19.21, 11.1 19.12 C9.24 19.04, 6.08 18.62, 4.24 17.38 C2.41 16.13, 0.6 13.77, 0.1 11.65 C-0.41 9.53, 0.09 6.25, 1.21 4.67 C2.34 3.09, 6.14 2.6, 6.87 2.18 C7.61 1.76, 5.77 1.98, 5.62 2.15" stroke="#000000" stroke-width="2" fill="none"></path></g><g stroke-linecap="round"><g transform="translate(52.212081271898484 26.448833326487375) rotate(0 -3.5136170292382616 0.7039859452997064)"><path d="M0.87 0.03 C-0.29 0.08, -4.62 0.26, -5.89 0.3 M-0.14 -1 C-1.44 -0.84, -5.04 0.92, -6.25 1.25" stroke="#000000" stroke-width="2" fill="none"></path></g></g><g stroke-linecap="round"><g transform="translate(73.1477754738246 27.258451327925144) rotate(0 2.4502976757638564 0.22625386633528421)"><path d="M-0.86 -0.48 C0.13 -0.07, 5.09 1.39, 6 1.48 M0.89 -1.77 C1.82 -1.6, 5.17 -0.6, 5.63 -0.1" stroke="#000000" stroke-width="2" fill="none"></path></g></g></svg>